<svg width="2064" height="607" viewBox="0 0 2064 607" fill="none" xmlns="http://www.w3.org/2000/svg">
<path d="M1315.18 276.399C1298.36 276.399 1282.67 278.425 1268.13 282.478C1253.87 286.219 1241.46 292.453 1230.91 301.182C1220.36 309.599 1211.95 320.821 1205.67 334.849C1199.68 348.877 1196.69 365.867 1196.69 385.818C1196.69 406.081 1199.68 423.226 1205.67 437.254C1211.95 450.971 1220.36 462.193 1230.91 470.922C1241.46 479.65 1253.87 485.885 1268.13 489.626C1282.67 493.367 1298.36 495.237 1315.18 495.237H1361.81C1381.78 495.237 1401.17 491.964 1419.99 485.417C1439.1 478.559 1455.5 466.713 1469.18 449.88L1496.56 468.584C1488.58 480.741 1479.45 490.561 1469.18 498.043C1458.92 505.213 1447.94 510.668 1436.25 514.409C1424.55 518.15 1412.29 520.643 1399.46 521.89C1386.91 523.137 1374.36 523.761 1361.81 523.761H1315.18C1294.37 523.761 1274.97 521.423 1257.01 516.747C1239.32 511.759 1223.92 503.81 1210.81 492.899C1197.97 481.677 1187.85 467.337 1180.43 449.88C1173.3 432.422 1169.74 411.069 1169.74 385.818C1169.74 360.567 1173.3 339.214 1180.43 321.756C1187.85 304.299 1197.97 290.115 1210.81 279.205C1223.92 267.982 1239.32 260.033 1257.01 255.357C1274.97 250.369 1294.37 247.875 1315.18 247.875H1361.81C1374.36 247.875 1386.91 248.499 1399.46 249.746C1412.29 250.993 1424.55 253.487 1436.25 257.227C1447.94 260.968 1458.92 266.579 1469.18 274.061C1479.45 281.231 1488.58 290.895 1496.56 303.052L1469.18 321.756C1455.5 304.923 1439.1 293.233 1419.99 286.686C1401.17 279.828 1381.78 276.399 1361.81 276.399H1315.18ZM1361.81 302.585C1382.35 302.585 1401.17 306.793 1418.28 315.21C1435.39 323.315 1449.93 336.72 1461.91 355.424L1529.93 311.469C1520.23 293.389 1509.4 278.581 1497.42 267.047C1485.44 255.201 1472.32 246.005 1458.06 239.458C1444.09 232.6 1428.97 227.924 1412.72 225.43C1396.75 222.937 1379.78 221.69 1361.81 221.69H1315.18C1290.37 221.69 1267.56 224.807 1246.74 231.042C1226.21 236.965 1208.38 246.472 1193.27 259.565C1178.44 272.658 1166.74 289.648 1158.19 310.534C1149.92 331.109 1145.78 356.203 1145.78 385.818C1145.78 415.433 1149.92 440.683 1158.19 461.57C1166.74 482.144 1178.44 498.978 1193.27 512.071C1208.38 525.164 1226.21 534.827 1246.74 541.062C1267.56 546.985 1290.37 549.947 1315.18 549.947H1361.81C1379.78 549.947 1396.75 548.7 1412.72 546.206C1428.97 543.712 1444.09 539.192 1458.06 532.645C1472.32 525.787 1485.44 516.591 1497.42 505.057C1509.4 493.522 1520.23 478.559 1529.93 460.167L1461.91 416.212C1449.93 434.916 1435.39 448.477 1418.28 456.894C1401.17 464.999 1382.35 469.051 1361.81 469.051H1315.18C1302.35 469.051 1290.23 467.648 1278.82 464.843C1267.42 462.037 1257.43 457.517 1248.88 451.282C1240.32 444.736 1233.48 436.163 1228.34 425.564C1223.21 414.965 1220.64 401.716 1220.64 385.818C1220.64 370.231 1223.21 357.138 1228.34 346.539C1233.48 335.94 1240.32 327.368 1248.88 320.821C1257.72 314.275 1267.84 309.599 1279.25 306.793C1290.66 303.988 1302.64 302.585 1315.18 302.585H1361.81ZM1209.95 556.025C1193.69 540.439 1180.72 525.943 1171.02 512.538C1161.33 498.822 1153.77 485.417 1148.35 472.324C1142.93 458.92 1139.37 445.204 1137.66 431.175C1135.94 417.147 1135.09 402.028 1135.09 385.818C1135.09 354.021 1139.51 327.056 1148.35 304.923C1157.19 282.478 1169.6 264.241 1185.57 250.213C1201.54 236.185 1220.5 226.054 1242.46 219.819C1264.71 213.273 1288.95 210 1315.18 210H1361.81C1378.07 210 1393.61 210.779 1408.44 212.338C1423.55 213.584 1438.53 217.325 1453.36 223.56C1468.19 229.795 1483.3 239.147 1498.7 251.616C1514.1 264.086 1530.64 281.387 1548.32 303.52C1551.18 306.949 1554.31 311.002 1557.73 315.678C1561.16 320.354 1564.44 325.341 1567.57 330.641C1570.71 335.94 1573.85 341.396 1576.99 347.007C1580.12 352.307 1582.97 357.294 1585.54 361.97L1502.12 415.745L1469.61 380.207C1459.63 373.037 1449.22 367.893 1438.38 364.776C1427.55 361.347 1416.28 359.632 1404.59 359.632H1357.96C1346.55 359.632 1335.72 360.879 1325.45 363.373C1315.18 365.867 1306.06 369.92 1298.07 375.531C1290.37 381.142 1284.24 388.624 1279.68 397.976C1275.12 407.328 1272.83 418.862 1272.83 432.578C1272.83 440.06 1273.4 446.295 1274.54 451.282C1280.53 453.465 1286.95 455.023 1293.8 455.958C1300.64 456.894 1307.77 457.361 1315.18 457.361H1361.81C1380.63 457.361 1398.32 452.997 1414.86 444.268C1431.68 435.54 1446.51 421.044 1459.35 400.781L1544.9 455.958L1585.54 503.186C1574.13 524.384 1561.73 541.686 1548.32 555.09C1535.21 568.495 1521.09 578.938 1505.97 586.419C1490.86 594.213 1474.89 599.512 1458.06 602.318C1441.24 605.435 1423.41 606.994 1404.59 606.994H1357.96C1343.42 606.994 1329.02 605.903 1314.76 603.721C1300.78 601.85 1287.24 598.733 1274.12 594.369C1261.28 590.316 1249.31 585.017 1238.18 578.47C1227.35 572.236 1217.94 564.754 1209.95 556.025Z" fill="#EAD200"/>
<path d="M971.075 371.79V399.846H725.593V495.237H1021.23V523.761H695.692V247.875H1020.75V276.399H725.593V371.79H971.075ZM1047.76 302.585V221.69H668.684V549.947H1048.24V469.051H752.119V425.564H997.601V346.072H752.119V302.585H1047.76ZM656.627 561.637V210H1059.82L1106.6 258.163V359.632H1032.81L1056.44 382.545V457.361L1107.08 505.524V606.994H706.302L656.627 561.637Z" fill="#0040E6"/>
<path d="M398.734 495.242C415.894 495.242 432.019 493.372 447.108 489.631C462.197 485.89 475.215 479.656 486.162 470.927C497.404 462.198 506.132 450.976 512.346 437.26C518.855 423.232 522.109 406.086 522.109 385.823C522.109 365.561 518.855 348.571 512.346 334.855C506.132 320.827 497.404 309.448 486.162 300.72C475.215 291.991 462.197 285.756 447.108 282.016C432.019 278.275 415.894 276.404 398.734 276.404H240.743V495.242H398.734ZM398.734 302.59C412.048 302.59 424.622 303.993 436.457 306.799C448.587 309.292 459.09 313.813 467.966 320.359C477.138 326.905 484.386 335.478 489.712 346.077C495.333 356.676 498.144 369.925 498.144 385.823C498.144 401.722 495.481 415.126 490.156 426.037C484.83 436.636 477.582 445.209 468.41 451.755C459.238 457.99 448.587 462.51 436.457 465.316C424.622 467.81 412.048 469.057 398.734 469.057H264.708V302.59H398.734ZM398.734 247.881C420.332 247.881 440.303 250.375 458.646 255.362C476.99 260.038 492.967 267.988 506.576 279.21C520.186 290.121 530.837 304.305 538.529 321.762C546.222 339.219 550.068 360.573 550.068 385.823C550.068 411.074 546.222 432.428 538.529 449.885C530.837 467.342 520.186 481.682 506.576 492.904C492.967 503.815 476.99 511.764 458.646 516.752C440.303 521.428 420.332 523.766 398.734 523.766H213.672V247.881H398.734ZM398.734 549.952C424.474 549.952 447.995 546.99 469.297 541.067C490.895 535.144 509.387 525.637 524.772 512.544C540.453 499.451 552.583 482.461 561.163 461.575C570.039 440.689 574.477 415.438 574.477 385.823C574.477 356.209 570.039 330.958 561.163 310.072C552.583 289.186 540.453 272.196 524.772 259.103C509.387 246.01 490.895 236.502 469.297 230.579C447.995 224.656 424.474 221.695 398.734 221.695H189.263V549.952H398.734ZM178.168 210.005H398.734C415.598 210.005 431.871 210.94 447.552 212.81C463.232 214.369 478.617 218.11 493.706 224.033C509.091 229.956 524.328 238.684 539.417 250.219C554.802 261.753 570.483 277.34 586.459 296.979C599.773 311.007 610.128 330.179 617.525 354.494C624.922 378.498 628.62 404.527 628.62 432.584C628.62 464.069 624.034 490.878 614.862 513.011C605.69 535.144 592.82 553.069 576.252 566.786C559.98 580.814 540.453 590.945 517.671 597.18C494.89 603.726 470.037 606.999 443.114 606.999H223.879L178.168 561.642V210.005ZM318.851 457.367H398.734C410.569 457.367 421.811 456.276 432.462 454.093C443.114 451.599 452.433 447.703 460.422 442.403C468.706 436.792 475.215 429.466 479.949 420.426C484.682 411.074 487.049 399.54 487.049 385.823C487.049 378.965 486.31 372.107 484.83 365.249C471.812 361.508 457.907 359.638 443.114 359.638H318.851V457.367Z" fill="#FF0000"/>
<path d="M331.322 223.93L187.501 336.402L177.898 336.122L155.568 306.852L16.5685 213.043C7.15345 202.492 16.3628 198.6 22.1443 197.973L125.498 204.773L87.4425 70.9672C81.2048 49.3631 95.1801 53.882 102.947 58.8419L219.27 128.519L240.818 26.9657C244.85 15.2441 253.038 20.9788 256.628 25.3113L310.083 186.018L332.413 215.288L331.322 223.93Z" fill="#EAD200"/>
<path d="M1643.83 247.875H1666.92V366.646L1855.05 247.875H1893.66L1672.6 385.818C1709.19 409.198 1745.53 432.267 1781.61 455.023C1817.95 477.468 1854.42 500.381 1891.01 523.761H1855.05L1666.92 405.457V523.761H1643.83V247.875ZM1688.12 448.009L1848.99 549.947L1966.72 549.479C1924.32 522.358 1882.3 495.237 1840.67 468.116C1799.03 440.683 1757.01 413.251 1714.61 385.818L1970.12 221.69H1848.99C1822.24 239.147 1795.49 256.292 1768.74 273.126C1742 289.648 1715.12 306.481 1688.12 323.627V221.69H1623.01V549.947H1688.12V448.009ZM1788.81 421.356L1822.12 442.866C1834.23 450.659 1846.72 458.764 1859.59 467.181C1872.71 475.598 1885.84 484.015 1898.96 492.431C1912.08 500.848 1925.08 509.265 1937.95 517.682C1951.07 526.099 1963.56 534.048 1975.42 541.53L2064 606.526L1884.58 606.994L1734.3 511.603V606.994H1652.54L1613.55 561.637V210H1697.58L1734.3 258.163V281.075C1742.88 275.776 1751.21 270.632 1759.28 265.644C1767.61 260.345 1776.19 254.889 1785.02 249.278C1793.85 243.667 1803.19 237.744 1813.03 231.509C1823.13 224.963 1834.23 217.793 1846.34 210H1974.67L2022.36 271.255L1788.81 421.356Z" fill="#005813"/>
</svg>
